<mxfile host="app.diagrams.net" modified="2022-02-24T13:11:14.207Z" agent="5.0 (Windows NT 10.0; Win64; x64) AppleWebKit/537.36 (KHTML, like Gecko) Chrome/98.0.4758.102 Safari/537.36" etag="jyiv3xaj8r1CFqLaZzFy" version="16.6.3" type="github">
  <diagram id="QIvL4KESl8Isbs_D4zTa" name="Page-1">
    <mxGraphModel dx="1422" dy="762" grid="1" gridSize="10" guides="1" tooltips="1" connect="1" arrows="1" fold="1" page="1" pageScale="1" pageWidth="827" pageHeight="1169" math="0" shadow="0">
      <root>
        <mxCell id="0" />
        <mxCell id="1" parent="0" />
        <mxCell id="TToJrZ25tYFQE1AZfCxK-6" style="edgeStyle=orthogonalEdgeStyle;rounded=0;orthogonalLoop=1;jettySize=auto;html=1;exitX=0.5;exitY=0.5;exitDx=0;exitDy=0;exitPerimeter=0;" edge="1" parent="1" source="TToJrZ25tYFQE1AZfCxK-1" target="TToJrZ25tYFQE1AZfCxK-2">
          <mxGeometry relative="1" as="geometry" />
        </mxCell>
        <mxCell id="TToJrZ25tYFQE1AZfCxK-8" value="Pushes&lt;br&gt;to master" style="edgeLabel;html=1;align=center;verticalAlign=middle;resizable=0;points=[];" vertex="1" connectable="0" parent="TToJrZ25tYFQE1AZfCxK-6">
          <mxGeometry x="-0.2515" relative="1" as="geometry">
            <mxPoint x="5" as="offset" />
          </mxGeometry>
        </mxCell>
        <mxCell id="TToJrZ25tYFQE1AZfCxK-1" value="Actor" style="shape=umlActor;verticalLabelPosition=bottom;verticalAlign=top;html=1;outlineConnect=0;" vertex="1" parent="1">
          <mxGeometry x="70" y="280" width="30" height="60" as="geometry" />
        </mxCell>
        <mxCell id="TToJrZ25tYFQE1AZfCxK-7" value="" style="edgeStyle=orthogonalEdgeStyle;rounded=0;orthogonalLoop=1;jettySize=auto;html=1;" edge="1" parent="1" source="TToJrZ25tYFQE1AZfCxK-2" target="TToJrZ25tYFQE1AZfCxK-3">
          <mxGeometry relative="1" as="geometry" />
        </mxCell>
        <mxCell id="TToJrZ25tYFQE1AZfCxK-2" value="" style="dashed=0;outlineConnect=0;html=1;align=center;labelPosition=center;verticalLabelPosition=bottom;verticalAlign=top;shape=mxgraph.weblogos.github" vertex="1" parent="1">
          <mxGeometry x="190" y="273" width="75" height="75" as="geometry" />
        </mxCell>
        <mxCell id="TToJrZ25tYFQE1AZfCxK-5" style="edgeStyle=orthogonalEdgeStyle;rounded=0;orthogonalLoop=1;jettySize=auto;html=1;exitX=1;exitY=0.5;exitDx=0;exitDy=0;exitPerimeter=0;" edge="1" parent="1" source="TToJrZ25tYFQE1AZfCxK-3" target="TToJrZ25tYFQE1AZfCxK-4">
          <mxGeometry relative="1" as="geometry" />
        </mxCell>
        <object placeholders="1" c4Name="Artifact builder" c4Type="Component" c4Technology="NPM function" c4Description="Compiles the api spec into a .HTML and .PDF file, saves these as artifacts" label="&lt;font style=&quot;font-size: 16px&quot;&gt;&lt;b&gt;%c4Name%&lt;/b&gt;&lt;/font&gt;&lt;div&gt;[%c4Type%: %c4Technology%]&lt;/div&gt;&lt;br&gt;&lt;div&gt;&lt;font style=&quot;font-size: 11px&quot;&gt;%c4Description%&lt;/font&gt;&lt;/div&gt;" id="TToJrZ25tYFQE1AZfCxK-3">
          <mxCell style="rounded=1;whiteSpace=wrap;html=1;labelBackgroundColor=none;fillColor=#63BEF2;fontColor=#ffffff;align=center;arcSize=6;strokeColor=#2086C9;metaEdit=1;resizable=0;points=[[0.25,0,0],[0.5,0,0],[0.75,0,0],[1,0.25,0],[1,0.5,0],[1,0.75,0],[0.75,1,0],[0.5,1,0],[0.25,1,0],[0,0.75,0],[0,0.5,0],[0,0.25,0]];" vertex="1" parent="1">
            <mxGeometry x="330" y="250" width="240" height="120" as="geometry" />
          </mxCell>
        </object>
        <mxCell id="TToJrZ25tYFQE1AZfCxK-4" value="Artifact&amp;nbsp; created" style="ellipse;shape=doubleEllipse;whiteSpace=wrap;html=1;" vertex="1" parent="1">
          <mxGeometry x="630" y="280" width="100" height="60" as="geometry" />
        </mxCell>
      </root>
    </mxGraphModel>
  </diagram>
</mxfile>
